<svg xmlns="http://www.w3.org/2000/svg" width="24" height="24" viewBox="0 0 24 24"><path d="M21.103 14.598c-.509-1.504-2.306-2.497-3.806-1.91l-6.235-10.688-11.062 20h20.25c2.067 0 3.75-1.682 3.75-3.75 0-1.774-1.239-3.265-2.897-3.652zm-.853 5.402h-3.26c-1.515-.008-2.505-1.653-1.708-3.009l-3.595-6.334-1.078 1.906-1-1.906-3.026 3.635 4.521-8.344 5.521 9.552c.875-1.781 3.328-.688 2.688 1.104 1.271-.5 2.687.224 2.687 1.646 0 .965-.785 1.75-1.75 1.75zm-2.236-8.579l-2.656-4.625.867-.498 2.656 4.625-.867.498zm3.298 1.579l-2.656-4.625.867-.498 2.656 4.625-.867.498z"/></svg>