<svg 
  xmlns="http://www.w3.org/2000/svg" width="24" height="24" viewBox="0 0 24 24">
  <path d="M4.9 4.4L3.1 2.6 5.7 0l1.8 1.8L4.9 4.4zM7.4 6.8L5.6 5l2.6-2.6L10 4.2 7.4 6.8zM9.9 9.3L8.1 7.5l2.6-2.6L12.5 6.7 9.9 9.3zM12.3 14.4c-0.4 0-0.8-0.1-1-0.4l-1.4-1.4c-0.3-0.3-0.4-0.6-0.4-1s0.1-0.8 0.4-1l3.8-3.8c0.3-0.3 0.6-0.4 1-0.4s0.8 0.1 1 0.4L17.1 8.2c0.3 0.3 0.4 0.6 0.4 1 0 0.4-0.1 0.8-0.4 1l-3.8 3.8C13.1 14.3 12.7 14.4 12.3 14.4zM16.4 15.9L14.6 14.1l2.6-2.6 1.8 1.8L16.4 15.9zM10.5 17.4l-4-4c0 0 0.1 0 0.1-0.1 0 0 0.1-0.1 0.3-0.1C7 13.1 7.2 13.1 7.3 13c0.1-0.1 0.3-0.1 0.5-0.1 0.2 0 0.4-0.1 0.6-0.1 0.7 0 1.4 0.3 1.9 0.9 0.6 0.6 0.9 1.2 0.9 1.9 0 0.1 0 0.3 0 0.4 0 0.1-0.1 0.3-0.1 0.4 0 0.1-0.1 0.2-0.1 0.3s-0.1 0.2-0.1 0.3c0 0.1-0.1 0.1-0.1 0.2 0 0.1-0.1 0.1-0.1 0.1L10.5 17.4zM18.9 18.3L17.1 16.5l2.6-2.6 1.8 1.8L18.9 18.3zM8.1 20.5H8l-0.4-0.1c-0.9-0.3-1.8-0.8-2.5-1.5 -0.7-0.7-1.2-1.5-1.5-2.5l-0.1-0.4v-0.1c0-0.1 0-0.2 0.1-0.2 0.1-0.1 0.1-0.1 0.2-0.1l0.8-0.3h0.1c0.1 0 0.2 0 0.2 0.1 0.1 0.1 0.1 0.1 0.1 0.2l0.1 0.4c0.2 0.7 0.6 1.3 1.1 1.8s1.1 0.9 1.8 1.1l0.4 0.1c0.1 0 0.2 0.1 0.2 0.1 0.1 0.1 0.1 0.2 0.1 0.2v0.1l-0.3 0.8c0 0.1-0.1 0.1-0.2 0.2C8.2 20.4 8.2 20.5 8.1 20.5zM8.1 23.8H8L7.6 23.7c-1.2-0.2-2.4-0.7-3.4-1.4S2.3 20.7 1.6 19.7s-1.2-2.2-1.4-3.4l-0.1-0.4v-0.1c0-0.1 0-0.2 0.1-0.3 0.1-0.1 0.1-0.1 0.2-0.1L1.2 15.2h0.1c0.1 0 0.2 0 0.3 0.1s0.1 0.1 0.1 0.2l0.1 0.4c0.2 1 0.6 2 1.2 2.8 0.6 0.9 1.3 1.6 2.2 2.2 0.9 0.6 1.8 1 2.8 1.2L8.4 22.2c0.1 0 0.1 0 0.2 0.1l0.1 0.1c0 0.1 0 0.1 0 0.2v0.1l-0.2 0.8c0 0 0 0.1-0.1 0.1l-0.1 0.1c0 0-0.1 0-0.1 0.1C8.2 23.8 8.2 23.8 8.1 23.8zM21.4 20.8L19.6 19l2.6-2.6L24 18.2 21.4 20.8z"/>
</svg>