<svg 
  xmlns="http://www.w3.org/2000/svg" width="24" height="24" viewBox="0 0 24 24">
  <path fill="white" d="M23.347 8.945c.918-1.085.862-2.679-.127-3.668l-4.499-4.497c-.989-.989-2.585-1.045-3.671-.126l-6.07 4.8c-1.222 1.034-1.315 2.882-.2 3.996l5.771 5.769c1.116 1.116 2.965 1.023 4-.201l4.796-6.073zm-6.058-6.734l4.499 4.498c.243.242.247.651.012.93l-.891 1.055-5.604-5.603 1.055-.892c.277-.236.686-.23.929.012zm-4.916 13.658l-8.13 8.131h-2.828l-.707-.707 7.292-7.293-.707-.707-7.292 7.293-.001-2.828 8.13-8.13 4.243 4.241z"/>
</svg>