<svg 
  xmlns="http://www.w3.org/2000/svg" width="24" height="24" viewBox="0 0 24 24">
  <path d="M15.929 11.517c.848-1.003 1.354-2.25 1.354-3.601s-.506-2.598-1.354-3.601l1.57-1.439c1.257 1.375 2.022 3.124 2.022 5.04s-.766 3.664-2.022 5.041l-1.57-1.44zm-10.992-10.076l-1.572-1.441c-2.086 2.113-3.365 4.876-3.365 7.916s1.279 5.802 3.364 7.916l1.572-1.441c-1.672-1.747-2.697-4.001-2.697-6.475s1.026-4.728 2.698-6.475zm1.564 11.515l1.57-1.439c-.848-1.003-1.354-2.25-1.354-3.601s.506-2.598 1.354-3.601l-1.57-1.439c-1.257 1.375-2.022 3.124-2.022 5.04s.765 3.664 2.022 5.04zm14.134-12.956l-1.571 1.441c1.672 1.747 2.697 4.001 2.697 6.475s-1.025 4.728-2.697 6.475l1.572 1.441c2.085-2.115 3.364-4.877 3.364-7.916s-1.279-5.803-3.365-7.916zm-12.564 24l2.995-7.788c.148-.386.52-.641.934-.641s.785.255.934.641l2.995 7.788h2.154l-5.083-13.268c1.162-.414 2-1.512 2-2.816 0-1.657-1.344-3-3-3s-3 1.343-3 3c0 1.304.838 2.403 2 2.816l-5.042 13.268h2.113z"/>
</svg>