<svg 
  xmlns="http://www.w3.org/2000/svg" width="24" height="24" viewBox="0 0 24 24">
  <path fill="#52f6ff" d="M20.043 11.76c-.141-.427-.314-.844-.516-1.242l-2.454 1.106c.217.393.39.81.517 1.242l2.453-1.106zm-12.572-.904c.271-.354.579-.674.918-.957l-1.89-1.968c-.328.293-.637.614-.919.957l1.891 1.968zm1.714-1.514c.38-.221.781-.396 1.198-.523l-1.033-2.569c-.412.142-.813.317-1.2.524l1.035 2.568zm-2.759 3.615c.121-.435.287-.854.498-1.25l-2.47-1.066c-.196.403-.364.823-.498 1.25l2.47 1.066zm9.434-6.2c-.387-.205-.79-.379-1.2-.519l-1.023 2.573c.418.125.82.299 1.2.519l1.023-2.573zm2.601 2.131c-.281-.342-.59-.664-.918-.957l-1.891 1.968c.34.283.648.604.919.957l1.89-1.968zm-5.791-3.06c-.219-.017-.437-.026-.648-.026-.213 0-.432.009-.65.026v2.784c.216-.025.434-.038.65-.038.215 0 .434.013.648.038v-2.784zm11.33 8.172c0-6.627-5.373-12-12-12s-12 5.373-12 12c0 2.583.816 5.042 2.205 7h19.59c1.389-1.958 2.205-4.417 2.205-7zm-9.08 5c-.007-1.086-.606-2.031-1.496-2.522l-1.402-6.571-1.402 6.571c-.889.491-1.489 1.436-1.496 2.522h-5.821c-.845-1.5-1.303-3.242-1.303-5 0-5.514 4.486-10 10-10s10 4.486 10 10c0 1.758-.458 3.5-1.303 5h-5.777z"/>
</svg>